# xmcd
# Copyright (c) 1998 CDDB Inc.
#
# Track frame offsets:
#	183
#	11995
#	27910
#	36763
#	44635
#	58213
#	66445
#	74500
#	84798
#	103188
#	118253
#	132008
#	146585
#
# Disc length: 2183 seconds
#
# Revision: 1
# Processed by: cddbd v1.4PL0 Copyright (c) Steve Scherf et al.
# Submitted via: audiograbber 1.62
#
DISCID=c408850d
DTITLE=Rene Inostroza - Siembre Canto
DYEAR=1900
DGENRE=
TTITLE0=Eso es vivir
TTITLE1=En cana
TTITLE2=Mate amargo
TTITLE3=El Amor
TTITLE4=Valsecito de los chacareros
TTITLE5=El clavel perdido
TTITLE6=Amor de dos
TTITLE7=Tu olvido
TTITLE8=Triste tu vida
TTITLE9=Cuando te cases
TTITLE10=Valgame
TTITLE11=Te recuerdo mujer
TTITLE12=Hace un año-Andandome yo paseando-Barbara
EXTD=
EXTT0=
EXTT1=
EXTT2=
EXTT3=
EXTT4=
EXTT5=
EXTT6=
EXTT7=
EXTT8=
EXTT9=
EXTT10=
EXTT11=
EXTT12=
PLAYORDER=
